# xmcd
#
# Track frame offsets:
#	150
#	18903
#	33388
#	48108
#	63313
#	81280
#	94858
#
# Disc length: 1456
#
# Revision: 1
# Processed by: cddbd v1.5.1PL0 Copyright (c) Steve Scherf et al.
# Submitted via: uFREEDB 1.6.0
# Normalized: r0:DSETVAR2,TDELIM( - )
#
DISCID=4c05ae07
DTITLE=Various Artist - Country Mix - Vol 6B
DYEAR=1900
DGENRE=Country
TTITLE0=Verlon Thompson - How Did We Get Here From There
TTITLE1=Vern Gosdin - I Knew My Dad Should Come
TTITLE2=Faron Young - Just An Ol' Heartache
TTITLE3=Martin Delray - Lillies White Lies
TTITLE4=Dolly Partob - Silver And Gold
TTITLE5=Ray Stevens - Working For The Japanese
TTITLE6=Anne Murray - You Will
EXTD=
EXTT0=
EXTT1=
EXTT2=
EXTT3=
EXTT4=
EXTT5=
EXTT6=
PLAYORDER=
